<?xml version="1.0" encoding="UTF-8" standalone="no"?>
<!-- Created with Inkscape (http://www.inkscape.org/) -->

<svg
   width="70mm"
   height="70mm"
   viewBox="0 0 70 70"
   version="1.1"
   id="svg1"
   xml:space="preserve"
   xmlns="http://www.w3.org/2000/svg"
   xmlns:svg="http://www.w3.org/2000/svg"><defs
     id="defs1" /><g
     id="layer1"><g
       transform="matrix(0.02878435,0,0,-0.02878435,-8.2993413,81.302467)"
       fill="#000000"
       stroke="none"
       id="g3"><path
         d="m 730,2567 c -48,-25 -80,-75 -80,-124 0,-18 11,-72 25,-119 14,-47 25,-95 25,-105 0,-10 -46,-65 -103,-121 C 534,2035 475,1965 446,1917 219,1551 279,1106 597,799 686,713 760,661 876,602 c 148,-76 155,-77 629,-77 468,0 481,1 622,71 285,139 490,383 554,660 18,81 21,114 16,227 -6,151 -25,227 -86,352 -54,109 -121,194 -236,302 l -97,91 16,28 c 45,82 60,124 63,174 5,70 -20,113 -80,140 -40,19 -74,20 -773,20 H 773 Z m 1497,-123 c 4,-10 -11,-50 -36,-98 -23,-44 -41,-93 -41,-108 0,-58 30,-106 102,-165 132,-108 232,-248 285,-398 25,-74 28,-92 27,-225 0,-131 -2,-153 -27,-225 -72,-216 -234,-393 -464,-509 -125,-62 -155,-66 -563,-66 -405,0 -452,5 -561,60 -237,120 -399,293 -472,508 -39,115 -48,263 -22,378 36,167 149,348 288,462 35,30 70,65 76,78 18,40 13,112 -14,212 -14,51 -23,97 -20,102 4,6 268,10 721,10 651,0 715,-1 721,-16 z"
         id="path1" /><path
         d="m 994,2096 c -17,-8 -51,-28 -74,-45 -24,-17 -53,-31 -65,-31 -32,0 -59,-34 -51,-65 15,-59 93,-55 189,11 27,19 60,34 74,34 13,0 56,-18 96,-39 40,-22 86,-42 104,-46 44,-9 110,11 164,51 26,19 59,34 74,34 15,0 53,-17 85,-39 97,-64 166,-63 270,4 30,19 66,35 81,35 15,0 49,-15 77,-34 85,-59 159,-69 183,-24 19,36 3,66 -42,78 -23,6 -65,27 -94,47 -88,58 -168,57 -255,-3 -74,-51 -96,-52 -155,-12 -60,41 -105,58 -154,58 -40,0 -109,-28 -129,-53 -8,-9 -29,-21 -48,-27 -32,-11 -41,-8 -126,34 -97,49 -146,57 -204,32 z"
         id="path2" /><path
         d="m 1410,1688 c -54,-15 -80,-45 -80,-90 0,-22 4,-47 10,-57 8,-15 -1,-29 -48,-77 -32,-33 -65,-70 -73,-83 l -15,-23 -113,30 c -121,32 -150,31 -170,-7 -27,-50 4,-217 60,-322 18,-32 35,-59 38,-59 15,0 116,75 176,131 l 65,61 37,-32 c 44,-39 123,-78 176,-86 35,-6 37,-9 37,-43 0,-20 5,-42 12,-49 30,-30 101,-3 143,53 16,21 55,48 100,70 164,81 303,241 331,381 12,62 -82,123 -231,149 -62,11 -115,14 -171,9 -76,-6 -85,-4 -152,25 -76,34 -80,34 -132,19 z m 558,-151 c 19,-15 14,-62 -8,-82 -39,-35 -99,6 -86,59 10,41 56,52 94,23 z m -228,1 c 0,-2 -7,-21 -15,-43 -32,-91 -11,-178 56,-224 21,-14 38,-30 39,-34 0,-14 -43,4 -80,32 -49,38 -72,86 -67,138 5,44 43,133 58,133 5,0 9,-1 9,-2 z"
         id="path3" /></g></g></svg>
