<?xml version="1.0" encoding="UTF-8"?>
<svg id="Layer_1" data-name="Layer 1" xmlns="http://www.w3.org/2000/svg" viewBox="0 0 191.65 111.5">
  <defs>
    <style>
      .cls-1 {
        fill: none;
      }
    </style>
  </defs>
  <g>
    <rect class="cls-1" x=".04" y="9.88" width="191.6" height="94.56"/>
    <path d="M5.42,9.08c.19-1.03,1.19-1.86,2.23-1.86h6.34c1.05,0,1.75.83,1.56,1.86l-2.08,11.53s-.13.79.53.31l13.57-13.08c.44-.42,1.01-.67,1.57-.67h9.88c.65,0,.86.74.36,1.23l-15.98,15.4c-.15.14-.18.34-.09.48l10.36,15.33c.33.49-.16,1.23-.8,1.23h-9.88c-.56,0-1.04-.25-1.33-.66l-6.08-8.99-4.54,4.34c-.21.2-.35.45-.4.72l-.49,2.69c-.19,1.03-1.19,1.86-2.23,1.86H1.59c-1.05,0-1.75-.83-1.56-1.86L5.42,9.08Z"/>
    <path d="M37.08,38.93l5.41-29.92c.19-1.03,1.19-1.87,2.24-1.87h28.3c.63,0,1.05.5.94,1.12l-1.15,6.34c-.11.62-.71,1.12-1.34,1.12h-19.67c-.21,0-.41.17-.45.38l-.62,3.47c-.04.21.1.38.31.38h15.82c.63,0,1.05.5.94,1.12l-1.05,5.82c-.11.62-.71,1.12-1.34,1.12h-15.82c-.21,0-.41.17-.45.38l-.58,3.23c-.04.21.1.38.31.38h19.67c.63,0,1.05.5.94,1.12l-1.18,6.57c-.11.62-.71,1.12-1.34,1.12h-28.3c-1.05,0-1.75-.84-1.57-1.87Z"/>
    <path d="M72.84,38.93l5.41-29.92c.19-1.03,1.19-1.87,2.24-1.87h28.3c.63,0,1.05.5.94,1.12l-1.15,6.34c-.11.62-.71,1.12-1.34,1.12h-19.67c-.21,0-.41.17-.45.38l-.62,3.47c-.04.21.1.38.31.38h15.82c.63,0,1.05.5.94,1.12l-1.05,5.82c-.11.62-.71,1.12-1.34,1.12h-15.82c-.21,0-.41.17-.45.38l-.58,3.23c-.04.21.1.38.31.38h19.67c.63,0,1.05.5.94,1.12l-1.18,6.57c-.11.62-.71,1.12-1.34,1.12h-28.3c-1.05,0-1.75-.84-1.57-1.87Z"/>
    <path d="M108.61,38.94l5.4-29.89c.19-1.03,1.19-1.86,2.23-1.86h23.95c4.92,0,8.2,3.92,7.33,8.77l-.49,2.69c-.04.08-.03.16-.04.24-.31,1.74-1.29,3.31-2.6,4.51.12-.11,1.2,1.86,1.27,2.04.31.74.42,1.46.41,2.22,0,.61-.1,1.26-.22,1.96l-.54,2.96c-.82,4.55-5.24,8.24-9.87,8.24h-25.28c-1.05,0-1.75-.84-1.56-1.87ZM120.04,31.71c-.04.2.1.37.31.37h13.25c.94,0,1.83-.74,1.99-1.66l.17-.93c.16-.92-.46-1.66-1.39-1.66h-13.25c-.21,0-.41.17-.45.37l-.64,3.51ZM122.25,19.47c-.04.21.1.38.31.38h12.39c.94,0,1.83-.75,1.99-1.66l.17-.93c.17-.92-.45-1.66-1.39-1.66h-12.4c-.21,0-.41.17-.45.37l-.64,3.51Z"/>
    <path d="M189.55,15.87l-2.92,16.17c-.88,4.84-5.58,8.76-10.5,8.76h-19.38c-4.92,0-8.21-3.92-7.33-8.76l2.92-16.17c.87-4.84,5.58-8.76,10.5-8.76h19.38c4.92,0,8.21,3.93,7.33,8.76ZM179.19,16.9c.11-.62-.31-1.12-.94-1.12h-14.59c-.63,0-1.23.5-1.34,1.12l-2.53,13.99c-.11.62.31,1.12.94,1.12h14.59c.63,0,1.23-.5,1.34-1.12l2.52-13.99Z"/>
  </g>
  <g id="layer1">
    <path id="path1" d="M105.47,54.71c-2.66.01-5.83.27-9.46.78-5.58.79-12.25,2.64-15.99,4.44-2.42,1.16-2.81,1.77-1.39,2.16,1.02.28,2.23-.06,5.2-1.46,8.89-4.18,22.4-5.74,26.04-3,1.11.84.56,2.63-1.43,4.63-1.02,1.02-2.23,1.76-6.72,5.49-.52.43-.84.64-1.18.97-.42.4-.57.5-.77.64-.39.26-.91.34-2.32.35-2.5.03-3.5.99-1.89,1.79.79.4.76.45-.87,1.58-.76.53-1.64,1.2-1.94,1.49-.3.28-.88.73-1.29.99-.4.26-1.15.81-1.65,1.22-.51.41-1.28,1.01-1.72,1.35-.44.33-1.23.98-1.74,1.44-.52.46-1.77,1.47-2.78,2.24-1.62,1.23-2.53,2.03-6.15,5.35-.45.42-.92.88-1.04,1.03-.18.23-.12.27.37.25,1.24-.03,3.13-.86,4.46-1.94,1.59-1.3,4.05-3.39,4.77-4.05.41-.38,1.33-1.13,2.04-1.67.71-.54,1.75-1.34,2.32-1.79.57-.45,1.68-1.29,2.46-1.86.79-.57,2.3-1.7,3.36-2.5,1.06-.8,2.14-1.56,2.39-1.69.25-.13.68-.44.95-.69.49-.46,4.74-1.12,9.16-1.43.76-.05,1.83-.15,2.39-.2,1.17-.12,1.22-.24-.85,1.96-4.49,4.77-1.04,7.29,8.56,6.24,1.06-.12,2.63-.25,3.49-.3.86-.05,2.64-.17,3.95-.27,6.59-.49,8.26-.57,12.67-.58,4.89-.01,9.77.23,12.22.6.76.11,2.37.36,3.58.55,3.55.55,7.45.84,7.43.56-.05-.96-10.49-2.58-18.91-2.94-4.91-.21-8.37-.08-16.81.64-9.88.84-12.77.4-12.77-1.93,0-1.35,3.48-4.86,5.01-5.05,1.37-.17,16.46,0,16.94.18.26.11.31.09.18-.05-.4-.44-10.07-1.32-14.54-1.32-2.54,0-2.5-.19.4-2.14,2.52-1.69,3.21-2.08,6.85-3.92,2.38-1.2,2.6-1.41,1.65-1.55-4.45-.65-4.27-.68-7.58,1.44-1.01.65-2.73,1.74-3.83,2.43s-2.7,1.82-3.56,2.52l-1.57,1.27-1.86.13c-3.6.26-7.7.27-7.78.03-.04-.12,0-.23.1-.23s1.12-.68,2.26-1.52c1.15-.83,2.34-1.67,2.64-1.87,10.25-6.51,8.12-10.87-3.43-10.81h0ZM52.25,63.3c-1.46.1-2.38.57-3.31,1.11-.58.34-1.77,1.06-4.39,2.7-4.78,3-9.01,6.2-10.84,7.75-.37.32-1.27,1.08-2.01,1.71-.73.63-1.39,1.39-1.61,1.63-.1.12-.24.28-.38.44-.14.16-.28.32-.39.43-2.63,2.63.91,4.18,6.92,3.03,1.16-.22,2.48-.47,2.94-.55.85-.16,8.35-1.69,10.47-2.15.66-.14,1.77-.37,2.48-.51,1.34-.26,5.24-1.11,8.54-1.86,2.01-.46,5.97-1.26,7.72-1.56.56-.1,3.37-.63,6.24-1.18,5.63-1.08,9.4-1.82,11.29-2.07.66-.09,2.42-.37,3.93-.63,1.89-.33,2.75-.45,2.24-.76s-11.59.94-15.08,1.6c-.51.09-3.45.69-4.86.95-1.41.26-3.36.64-4.32.84-.96.21-2.65.56-3.76.79-1.11.23-3.92.85-6.25,1.38-2.32.52-4.56,1.02-4.96,1.1-.4.08-1.56.36-2.57.62-6.6,1.71-14.26,2.92-15.42,2.43-2.24-.94,1.32-5.2,7.61-9.1,3.15-1.95,4.71-2.87,8.36-4.9,2.54-1.42,3.91-2,3.79-2.51-.13-.57-1.03-.75-2.4-.75h0Z"/>
  </g>
</svg>